<svg xmlns="http://www.w3.org/2000/svg" xmlns:xlink="http://www.w3.org/1999/xlink" width="25" height="24" viewBox="0 0 25 24"><defs><path id="av4pa" d="M1109.72 10676.2v-1.7h-.02l.02-.43v-9.35a7.23 7.23 0 1 0-14.45 0v9.35c0 .15.02.29.03.43h-.03v1.7s-4.25-.07-4.25-4.68c0-2.6 1.37-3.76 2.55-4.27v-2.53a8.92 8.92 0 1 1 17.85 0v2.53c1.19.51 2.55 1.66 2.55 4.27 0 4.6-4.25 4.68-4.25 4.68zm-12.75 0h-.85v-9.35h.85zm11.9 0h-.85v-9.35h.85z"/></defs><g><g clip-path="url(#clip-1260)" transform="translate(-1090 -10654)"><use fill="#f7f7f7" xlink:href="#av4pa"/></g></g></svg>