<svg xmlns="http://www.w3.org/2000/svg" xmlns:xlink="http://www.w3.org/1999/xlink" width="43" height="34" viewBox="0 0 43 34"><defs><path id="5ea3a" d="M1362.33 1536.95h-33.66a2.68 2.68 0 0 1-2.7-2.66v-21.27c0-1.46 1.21-2.66 2.7-2.66h8.16s-.08-.15-.08-1.99c0-1.83 1.5-3.32 3.36-3.32h10.78a3.34 3.34 0 0 1 3.36 3.32c0 1.84.09 2 .09 2h8c1.48 0 2.68 1.19 2.68 2.65v21.27c0 1.47-1.2 2.66-2.69 2.66zm-16.77-5.35a8.03 8.03 0 0 0 8.08-7.98c0-4.4-3.62-7.97-8.08-7.97a8.03 8.03 0 0 0-8.08 7.97c0 4.4 3.62 7.98 8.08 7.98z"/></defs><g><g clip-path="url(#clip-77)" transform="translate(-1324 -1504)"><use fill="#fff" xlink:href="#5ea3a"/></g></g></svg>