<svg xmlns="http://www.w3.org/2000/svg" xmlns:xlink="http://www.w3.org/1999/xlink" width="60" height="66" viewBox="0 0 60 66"><defs><path id="f3pfa" d="M549.3 3618.74c8.66 1.28 10.44 4.1 12.08 5.67 1.63 1.57 1.59 8.74 1.59 8.74l-24.58.03 2.37-5.8-3.3-13.74c0 2.5-1.29 2.1-1.29 2.1h-2.09c-1.64 0-1.54-1.27-1.47-1.66l.02-.12-.02.12-2.55 13.3 2.25 5.81-25.32.04s.44-7.25 2.07-8.82c1.64-1.57 3.3-4.39 11.96-5.67 8.67-1.29 8.04-5.87 8.32-5.73-.05-1.73-.22-4.17-.22-4.17s-3.54-1.92-4.87-5.72c-2.79-1.13-2.42-1.85-2.7-3.3 0 0-.84-5.9 1.05-5.78 0 0 1.29 0 .99-1.36-.1-2.25-.3-6.15-.16-7.66.15-1.5.86-5.56 4-6.17 3.15-.6 1.89-.3 2.94-.45 1.05-.15.75-.75 2.7-.75l4.04-.65c1.94 0 3.2 2.89 4.24 3.04 1.05.15 1.06-.46 3.2-.06 3.15.6 2.71 4.74 2.86 6.24.15 1.5.25 5.41-.05 6.77-.3 1.35.64 1.2.64 1.2 2.24 0 1.13 5.77 1.13 5.77-.34 1.53-.5 1.72-2.59 3.04-1.32 3.8-4.92 6.14-4.92 6.14s.02 2.9 0 3.59c.06.27-.43 4.8 7.68 6zM536 3639h-1.45l-2.25-5.82h6.08z"/></defs><g><g clip-path="url(#clip-220)" transform="translate(-505 -3575)"><use fill="#fff" xlink:href="#f3pfa"/></g></g></svg>