<svg xmlns="http://www.w3.org/2000/svg" xmlns:xlink="http://www.w3.org/1999/xlink" width="24" height="20" viewBox="0 0 24 20"><defs><path id="wnkla" d="M1110.65 10127.72h-17.85a1.7 1.7 0 0 1-1.7-1.7v-13.6c0-.94.76-1.7 1.7-1.7h17.85c.94 0 1.7.76 1.7 1.7v13.6c0 .94-.76 1.7-1.7 1.7zm0-15.3h-17.85v13.6h17.85zm-13.05 10.4l2.54-4.34 2.54 2.7 3.5-5.55 3.65 9.56h-16.2l2.07-4.36zm-1.4-7.85a1.7 1.7 0 1 1 0 3.4 1.7 1.7 0 0 1 0-3.4z"/></defs><g><g clip-path="url(#clip-1218)" transform="translate(-1090 -10109)"><use fill="#fff" xlink:href="#wnkla"/></g></g></svg>